<svg id="Layer_1" data-name="Layer 1" xmlns="http://www.w3.org/2000/svg" xmlns:xlink="http://www.w3.org/1999/xlink" viewBox="0 0 1381.61 1427.86"><defs><style>.cls-1{fill:none;}.cls-2{clip-path:url(#clip-path);}.cls-3{fill:#55beff;}.cls-4{fill:#43b1e8;}.cls-5{fill:#39a6d1;}</style><clipPath id="clip-path" transform="translate(-882.9 -911.1)"><path class="cls-1" d="M1297.19,911.1l279.54,935.15L1852.24,911.1h412.28L1739.62,2339H1413.83L882.9,911.1Z"/></clipPath></defs><title>favicon</title><g class="cls-2"><path class="cls-3" d="M1297.19,911.1l279.54,935.15L1852.24,911.1h412.28L1739.62,2339H1413.83L882.9,911.1Z" transform="translate(-882.9 -911.1)"/><polygon class="cls-4" points="693.82 1278.41 475.35 1278.41 530.92 1427.86 693.82 1427.86 693.82 1278.41"/><polygon class="cls-4" points="911.66 1278.41 693.82 1278.41 693.82 1427.86 856.72 1427.86 911.66 1278.41"/><rect class="cls-5" x="625.85" y="1069.68" width="129.92" height="208.73"/><rect class="cls-4" x="606.55" y="901.16" width="168.52" height="168.52"/></g><rect class="cls-5" x="683.2" y="1264.6" width="15.22" height="163.27"/></svg>