<svg id="Layer_1" data-name="Layer 1" xmlns="http://www.w3.org/2000/svg" xmlns:xlink="http://www.w3.org/1999/xlink" viewBox="0 0 2287.95 761.77"><defs><style>.cls-1{fill:none;}.cls-2{fill:#55beff;}.cls-3{clip-path:url(#clip-path);}.cls-4{fill:#43b1e8;}.cls-5{fill:#39a6d1;}</style><clipPath id="clip-path" transform="translate(-440.79 -1008.08)"><path class="cls-1" d="M661.81,1008.08,810.94,1507l147-498.9h220l-280,761.76H724L440.79,1008.08Z"/></clipPath></defs><title>logo</title><path class="cls-2" d="M1355,1766.59q-49.8,0-90.36-19t-69.46-50.1a226.74,226.74,0,0,1-44.88-71,219.72,219.72,0,0,1-16-82.36,214.21,214.21,0,0,1,16.6-83,220.2,220.2,0,0,1,46.41-70.38,226.06,226.06,0,0,1,70.69-48.56q40.88-18.12,89.44-18.14,49.79,0,90.36,19.06t69.46,50.41a226.18,226.18,0,0,1,44.56,71.3,222.08,222.08,0,0,1,15.68,81.75,212.11,212.11,0,0,1-16.6,82.68,223.94,223.94,0,0,1-46.1,70.07q-29.5,30.43-70.39,48.87T1355,1766.59Zm-99-221.29a148.52,148.52,0,0,0,6.15,42.73,111.49,111.49,0,0,0,18.44,36.57,93,93,0,0,0,31,25.82q18.75,9.84,44.57,9.83t44.87-10.14a90.85,90.85,0,0,0,31-26.43,114,114,0,0,0,17.83-37.19,157,157,0,0,0,5.84-42.41,148.91,148.91,0,0,0-6.15-42.73,105.35,105.35,0,0,0-18.75-36.26,94.78,94.78,0,0,0-31.35-25.21q-18.75-9.51-43.95-9.52-25.82,0-44.56,9.83a91.64,91.64,0,0,0-31,26.13,110.6,110.6,0,0,0-18.13,36.88A153.36,153.36,0,0,0,1256.06,1545.3Z" transform="translate(-440.79 -1008.08)"/><path class="cls-2" d="M1651.9,1168.43h154.41v423.43q0,48.77,39.83,48.76a77.22,77.22,0,0,0,21.13-3.25,91.39,91.39,0,0,0,21.13-8.94l19.5,113.78q-27.63,13-62.17,20.32a316.78,316.78,0,0,1-65.42,7.31q-61.79,0-95.09-31.69t-33.32-91.84Z" transform="translate(-440.79 -1008.08)"/><path class="cls-2" d="M2154.15,1769.84q-56.07,0-100-17.47t-73.55-47.54a204.46,204.46,0,0,1-45.11-69.08,220.87,220.87,0,0,1-15.44-82.09,255,255,0,0,1,15-87.77,203,203,0,0,1,44.69-72.34q29.67-30.87,73.15-49.16t101.18-18.29q56.88,0,100.78,18.29t73.55,48.76a201.37,201.37,0,0,1,44.7,70.71,238.35,238.35,0,0,1,15,84.11q0,12.19-1.22,24.79t-2.85,22.35H2084.26q2.44,34.14,25.2,49.17a88,88,0,0,0,49.57,15,103.29,103.29,0,0,0,47.54-11.37q22.35-11.37,29.67-31.7l130.85,37.39q-26,51.19-80.06,83.71T2154.15,1769.84Zm68.27-267.38q-4.08-30.89-22.75-48.76t-48-17.88q-29.26,0-48,17.88T2081,1502.46Z" transform="translate(-440.79 -1008.08)"/><path class="cls-2" d="M2728.74,1465.89q-44.72,0-81.27,9.75T2593,1508.15v253.57H2438.6V1334.23H2580v81.27q22.74-43.07,56.49-66.24t72.73-23.16q15.43,0,19.51.81Z" transform="translate(-440.79 -1008.08)"/><g class="cls-3"><path class="cls-2" d="M661.81,1008.08,810.94,1507l147-498.9h220l-280,761.76H724L440.79,1008.08Z" transform="translate(-440.79 -1008.08)"/><polygon class="cls-4" points="370.16 682.03 253.6 682.03 283.25 761.77 370.16 761.77 370.16 682.03"/><polygon class="cls-4" points="486.37 682.03 370.16 682.03 370.16 761.77 457.06 761.77 486.37 682.03"/><rect class="cls-5" x="333.89" y="570.68" width="69.31" height="111.36"/><rect class="cls-4" x="323.59" y="480.77" width="89.91" height="89.91"/></g><rect class="cls-5" x="364.49" y="674.67" width="8.12" height="87.1"/></svg>